<?xml version="1.0" encoding="UTF-8"?>
<svg id="Layer_1" data-name="Layer 1" xmlns="http://www.w3.org/2000/svg" viewBox="0 0 841.89 595.28">
  <defs>
    <style>
      .cls-1 {
        fill: #f38b36;
      }

      .cls-1, .cls-2 {
        stroke-width: 0px;
      }

      .cls-2 {
        fill: #009ddb;
      }
    </style>
  </defs>
  <g>
    <polygon class="cls-2" points="280.23 251.8 293.71 292.24 304.45 292.24 318.05 251.8 324.92 292.24 336.71 292.24 325.97 228.21 314.1 228.21 299.12 272.87 284.28 228.21 272.4 228.21 261.32 292.24 273.2 292.24 280.23 251.8"/>
    <path class="cls-2" d="M368.43,293.36c4.41,0,8.22-.78,11.43-2.35,3.21-1.56,5.96-3.98,8.26-7.24l-9.22-4.33c-2.94,2.86-6.46,4.29-10.55,4.29-3.42,0-6.24-.92-8.44-2.75s-3.56-4.3-4.07-7.4h35.17l.04-2.09c0-7.22-2.15-13.03-6.46-17.42-4.3-4.4-9.89-6.6-16.76-6.6-6.47,0-11.85,2.2-16.14,6.6-4.29,4.4-6.44,9.92-6.44,16.58s2.15,11.9,6.46,16.22c4.3,4.32,9.88,6.48,16.72,6.48ZM360.33,259.32c2.3-1.71,4.98-2.57,8.03-2.57,2.81,0,5.28.76,7.41,2.29,2.13,1.52,3.55,3.5,4.28,5.93h-23.74c1.23-2.7,2.57-4.58,4.02-5.65Z"/>
    <path class="cls-2" d="M420.37,293.36c2.51,0,4.84-.45,6.99-1.34,2.15-.9,4.29-2.36,6.43-4.39v4.61h10.95v-60.47h-10.95v21.65c-1.95-1.98-4.07-3.46-6.37-4.45-2.3-.99-4.75-1.48-7.37-1.48-5.69,0-10.52,2.15-14.5,6.46-3.98,4.3-5.97,9.82-5.97,16.56s2.06,11.93,6.17,16.3,8.99,6.56,14.62,6.56ZM413.85,261.18c2.24-2.39,5.05-3.59,8.43-3.59s6.33,1.18,8.59,3.53,3.4,5.43,3.4,9.22-1.13,7.01-3.4,9.4-5.12,3.59-8.55,3.59-6.13-1.22-8.41-3.65c-2.28-2.43-3.42-5.53-3.42-9.3s1.12-6.81,3.36-9.2Z"/>
    <path class="cls-2" d="M455.33,242.73c-1.37-1.4-2.06-3.11-2.06-5.11s.68-3.57,2.04-4.93c1.36-1.36,3-2.05,4.92-2.05s3.57.7,4.94,2.09c1.37,1.39,2.06,3.07,2.06,5.05s-.68,3.62-2.04,4.99c-1.36,1.38-2.99,2.07-4.88,2.07s-3.61-.7-4.98-2.11ZM454.76,292.24h10.95v-43.63h-10.95v43.63Z"/>
    <path class="cls-2" d="M496.44,274.11c0,6.5,2.06,11.93,6.17,16.3,4.11,4.37,8.99,6.56,14.62,6.56,2.51,0,4.84-.45,6.99-1.34,2.15-.9,4.29-2.36,6.43-4.39v4.61h10.95v-43.63h-10.95v4.81c-1.95-1.98-4.07-3.46-6.37-4.45-2.3-.99-4.75-1.48-7.37-1.48-5.69,0-10.52,2.15-14.5,6.46s-5.97,9.82-5.97,16.56ZM510.71,264.79c2.24-2.39,5.05-3.59,8.43-3.59s6.33,1.18,8.59,3.53c2.26,2.35,3.4,5.43,3.4,9.22s-1.13,7.01-3.4,9.4c-2.26,2.39-5.12,3.59-8.55,3.59s-6.13-1.22-8.41-3.65c-2.28-2.43-3.42-5.53-3.42-9.3s1.12-6.81,3.36-9.2Z"/>
    <rect class="cls-2" x="550.14" y="228.21" width="10.95" height="64.03"/>
    <rect class="cls-2" x="569.63" y="228.21" width="10.95" height="64.03"/>
    <path class="cls-1" d="M533.27,302.55c-4.23,1.91-8.94,2.88-14.02,2.88-5.96,0-11.46-1.38-16.35-4.11-4.93-2.75-8.8-6.59-11.5-11.4-2.69-4.79-4.05-10.33-4.05-16.45,0-8.84,3.08-16.4,9.15-22.47,3.99-3.97,8.63-6.67,13.82-8.05l-2.36-10.41c-4.59.9-6.68,1.76-10.89,4.12-6.8,3.81-12.1,8.91-15.74,15.16-3.64,6.26-5.49,13.54-5.49,21.63,0,12.67,3.94,22.76,12.06,30.84,4.08,4.06,8.81,7.09,14.14,9.09-1.17.04-2.34.09-3.49.14-17.05.38-34.15-.09-51.1-1.73-34.49-2.89-67.63-12.32-102.85-12.18-23.18.12-47.55,4.88-66.66,18.46,15.76-7.13,32.51-10.33,49.57-10.72,28.55-.88,56.02,5.64,84.54,10.15,22.89,3.67,46.37,5.43,69.57,4.1,11.63-.6,23.14-1.86,34.65-3.85,2.36-.45,4.78-.99,7.18-1.66,5.1-.4,9.76-1.47,13.9-3.22,4.85-2.06,10.06-5.66,15.51-10.73l-7.72-8.05c-4.24,3.96-8.22,6.8-11.88,8.44Z"/>
  </g>
  <g>
    <path class="cls-2" d="M323.68,347.32c0,2.57.55,4.68,1.56,6.38,1.24,2.05,3.03,3.06,5.37,3.06s4.16-1.01,5.37-3.06c1.01-1.69,1.53-3.81,1.53-6.38v-14.8h2.28v15.26c0,3.29-.91,5.99-2.7,8.1-1.72,2.05-3.87,3.09-6.47,3.09s-4.78-1.04-6.57-3.12c-1.76-2.08-2.63-4.78-2.63-8.07v-3.12h2.28v2.67Z"/>
    <path class="cls-2" d="M359.82,353.57h-4.49c-.65,3.35-2.86,5.11-6.6,5.33v-2.18h.29c2.08,0,3.42-1.07,3.97-3.16h-3.55c-1.82,0-3.32-.68-4.49-2.08-1.17-1.4-1.76-3.16-1.76-5.27s.62-3.87,1.85-5.3c1.27-1.43,2.83-2.15,4.68-2.15,3.61,0,5.86,2.21,5.86,6.51v6.05h4.23v2.25ZM353.25,351.29v-6.86c0-.94-.29-1.76-.88-2.41-.65-.75-1.56-1.14-2.77-1.14s-2.25.59-3.03,1.72c-.68,1.01-1.04,2.15-1.04,3.38,0,1.3.29,2.47.91,3.48.75,1.24,1.76,1.85,3.03,1.85l3.77-.03Z"/>
    <path class="cls-2" d="M366.13,353.57h-6.86v-2.28h6.86v2.28Z"/>
    <path class="cls-2" d="M372.57,353.57h-6.86v-2.28h6.86v2.28Z"/>
    <path class="cls-2" d="M379.01,353.57h-6.86v-2.28h6.86v2.28Z"/>
    <path class="cls-2" d="M385.45,353.57h-6.86v-2.28h6.86v2.28Z"/>
    <path class="cls-2" d="M410.63,353.57h-27v-2.28h19.78c.03-.39.07-.78.07-1.17,0-2.5-.59-4.52-1.79-6.02-1.4-1.76-3.48-2.63-6.25-2.63h-6.7c1.17-2.12,2.83-5.08,4.98-8.91h2.7l-3.87,6.67h2.89c3.29,0,5.92,1.01,7.87,3.06,1.92,2.02,2.86,4.68,2.86,8v1.01h4.46v2.28Z"/>
    <path class="cls-2" d="M416.55,353.57h-6.86v-2.28h6.86v2.28Z"/>
    <path class="cls-2" d="M423,353.57h-6.86v-2.28h6.86v2.28Z"/>
    <path class="cls-2" d="M429.44,353.57h-6.86v-2.28h6.86v2.28Z"/>
    <path class="cls-2" d="M435.88,353.57h-6.86v-2.28h6.86v2.28Z"/>
    <path class="cls-2" d="M443.16,338.8v9.04c0,3.81-1.59,5.73-4.78,5.73h-2.86v-2.25h2.11c1.4,0,2.31-.46,2.77-1.37.33-.58.49-1.63.49-3.12v-8.04h2.28ZM438.87,358.54h-2.31v-2.77h2.31v2.77ZM443.13,358.54h-2.31v-2.77h2.31v2.77Z"/>
    <path class="cls-2" d="M466,353.57h-19.55v-2.28h12.04c0-2.9-.52-5.24-1.59-6.99-1.3-2.11-3.32-3.22-6.02-3.38h-.88v-2.15c6.86,0,10.48,4.16,10.83,12.52h5.17v2.28Z"/>
    <path class="cls-2" d="M472.28,353.57h-6.86v-2.28h6.86v2.28Z"/>
    <path class="cls-2" d="M478.72,353.57h-6.86v-2.28h6.86v2.28Z"/>
    <path class="cls-2" d="M485.16,353.57h-6.86v-2.28h6.86v2.28Z"/>
    <path class="cls-2" d="M491.6,353.57h-6.86v-2.28h6.86v2.28Z"/>
    <path class="cls-2" d="M502.31,353.57h-11.22v-2.25h2.08c1.4,0,2.31-.46,2.76-1.33.33-.62.49-1.66.49-3.16v-8.04h2.28v9.04c0,1.4-.2,2.57-.62,3.45h4.23v2.28ZM494.47,358.54h-2.31v-2.77h2.31v2.77ZM498.73,358.54h-2.31v-2.77h2.31v2.77Z"/>
    <path class="cls-2" d="M520.13,349.01c0,2.12-.59,3.84-1.76,5.21-1.24,1.46-2.9,2.18-4.98,2.18-2.5,0-4.39-.94-5.63-2.83h-6.28v-2.28h5.33c-.2-.68-.29-1.43-.29-2.24,0-2.15.62-3.9,1.85-5.3,1.24-1.4,2.93-2.08,5.04-2.08s3.81.71,5.01,2.11c1.14,1.33,1.69,3.09,1.69,5.24ZM517.5,348.78c0-1.46-.29-2.63-.85-3.51-.72-1.07-1.76-1.59-3.12-1.59-1.5,0-2.6.59-3.35,1.72-.62.94-.94,2.18-.94,3.77,0,1.46.33,2.67.94,3.58.75,1.07,1.82,1.59,3.22,1.59,2.73,0,4.1-1.85,4.1-5.56Z"/>
  </g>
</svg>