<?xml version="1.0" encoding="UTF-8" standalone="no"?>
<!-- Created with Inkscape (http://www.inkscape.org/) -->

<svg
   version="1.1"
   id="svg267"
   xml:space="preserve"
   width="682.66669"
   height="682.66669"
   viewBox="0 0 682.66669 682.66669"
   xmlns="http://www.w3.org/2000/svg"
   xmlns:svg="http://www.w3.org/2000/svg"><defs
     id="defs271"><clipPath
       clipPathUnits="userSpaceOnUse"
       id="clipPath281"><path
         d="M 0,512 H 512 V 0 H 0 Z"
         id="path279" /></clipPath></defs><g
     id="g273"
     transform="matrix(1.3333333,0,0,-1.3333333,0,682.66667)"><g
       id="g275"><g
         id="g277"
         clip-path="url(#clipPath281)"><g
           id="g283"
           transform="translate(356.0293,357.9424)"><path
             d="m 0,0 11.25,8.058 0.071,6.532 C 7.404,21.413 0.574,26.351 -7.481,27.7 l -3.394,-1.142 -17.516,-8.064 V 0 Z"
             style="fill:#ffa68e;fill-opacity:1;fill-rule:nonzero;stroke:none"
             id="path285" /></g><g
           id="g287"
           transform="translate(144.6782,372.5298)"><path
             d="m 0,0 v -6.28 l 11.351,-8.307 H 42.518 V 4.804 H 24.685 l -9,6.091 H 11.756 C 6.814,8.541 2.712,4.72 0,0"
             style="fill:#ffa68e;fill-opacity:1;fill-rule:nonzero;stroke:none"
             id="path289" /></g><g
           id="g291"
           transform="translate(344.103,359.0513)"><path
             d="m 0,0 h -14.421 l -2.044,1.79 v -26.591 l 2.044,-1.79 H 0 c 14.796,0 26.791,11.995 26.791,26.79 V 0.2 c 0,4.84 -1.297,9.368 -3.544,13.281 C 18.626,5.429 9.95,0 0,0"
             style="fill:#f79480;fill-opacity:1;fill-rule:nonzero;stroke:none"
             id="path293" /></g><g
           id="g295"
           transform="translate(167.9228,359.0513)"><path
             d="M 0,0 C -9.949,0 -18.624,5.427 -23.245,13.479 -25.493,9.566 -26.79,5.039 -26.79,0.2 V 0.199 c 0,-14.795 11.995,-26.79 26.79,-26.79 h 14.422 l 4.851,4.207 V 4.207 L 14.422,0 Z"
             style="fill:#f79480;fill-opacity:1;fill-rule:nonzero;stroke:none"
             id="path297" /></g><g
           id="g299"
           transform="translate(404.3281,191.5669)"><path
             d="m 0,0 c -2.143,0.83 -20.785,8.049 -41.639,16.126 l -9.538,-1.943 -90.455,-87.916 h -7.833 l -97.5,90.911 h -5.68 L -280.966,6.117 c -9.866,-11.872 -18.792,-28.033 -18.792,-47.672 V -184.067 H 26.553 c 7.329,0 13.271,5.942 13.271,13.271 V -61.77 C 39.824,-29.054 17.026,-7.007 0,0"
             style="fill:#60b9fe;fill-opacity:1;fill-rule:nonzero;stroke:none"
             id="path301" /></g><g
           id="g303"
           transform="translate(326.0742,221.8726)"><path
             d="m 0,0 -68.888,-64.68 -68.984,65.815 -36.52,-14.263 85.845,-85.844 c 5.565,-5.565 12.875,-8.348 20.185,-8.348 7.31,0 14.62,2.783 20.185,8.348 L 36.615,-14.18 C 24.186,-9.366 10.978,-4.251 0,0"
             style="fill:#8bcaff;fill-opacity:1;fill-rule:nonzero;stroke:none"
             id="path305" /></g><g
           id="g307"
           transform="translate(301.4355,231.4146)"><path
             d="m 0,0 c -2.822,1.091 -4.697,3.807 -4.706,6.848 l -0.02,24.203 -4.514,4.034 H -46.249 V -80.029 c 2.846,-0.915 6.09,-0.25 8.35,2.009 l 56.281,56.282 V -7.119 C 8.394,-3.25 1.251,-0.484 0,0"
             style="fill:#ffa68e;fill-opacity:1;fill-rule:nonzero;stroke:none"
             id="path309" /></g><g
           id="g311"
           transform="translate(257.186,266.5)"><path
             d="m 0,0 h -36.823 l -5.11,-3.926 v -24.266 c 0,-3.034 -1.459,-4.821 -3.137,-5.961 l -17.562,-6.859 v -14.759 l 57.334,-57.334 c 1.474,-1.474 3.369,-2.264 5.298,-2.387 z"
             style="fill:#f79480;fill-opacity:1;fill-rule:nonzero;stroke:none"
             id="path313" /></g><g
           id="g315"
           transform="translate(203.082,113.0815)"><path
             d="m 0,0 c -9.157,-4.23 -15.562,-13.492 -15.562,-24.196 0,-10.703 6.405,-19.965 15.562,-24.196 9.957,3.537 17.139,13.066 17.139,24.196 C 17.139,-13.066 9.957,-3.536 0,0"
             style="fill:#dbedff;fill-opacity:1;fill-rule:nonzero;stroke:none"
             id="path317" /></g><g
           id="g319"
           transform="translate(188.1377,88.8857)"><path
             d="M 0,0 C 0,10.717 6.659,19.949 16.042,23.776 13.065,24.991 9.817,25.667 6.417,25.667 -7.7,25.667 -19.25,14.117 -19.25,0 c 0,-14.116 11.55,-25.667 25.667,-25.667 3.4,0 6.648,0.676 9.625,1.891 C 6.659,-19.948 0,-10.716 0,0"
             style="fill:#b5dcff;fill-opacity:1;fill-rule:nonzero;stroke:none"
             id="path321" /></g><g
           id="g323"
           transform="translate(327.6382,380.667)"><path
             d="m 0,0 -8.275,4.975 -8.167,19.358 H -26.609 L -56.109,-1 h -43.765 l -7.568,-8.084 v -88.199 l 39.333,-27 14.279,-3.773 c 31.993,7.583 55.874,36.37 55.874,70.647 v 52.654 z"
             style="fill:#ffb1a0;fill-opacity:1;fill-rule:nonzero;stroke:none"
             id="path325" /></g><g
           id="g327"
           transform="translate(225.2602,323.2578)"><path
             d="m 0,0 v 52.079 l 4.852,4.33 h -42.916 l -4.852,-4.33 V 0 c 0,-37.953 29.738,-72.617 74.72,-72.617 7.217,0 14.186,1.074 20.771,3.043 C 20.244,-60.351 0,-31.305 0,0"
             style="fill:#ffa68e;fill-opacity:1;fill-rule:nonzero;stroke:none"
             id="path329" /></g><g
           id="g331"
           transform="translate(106.1958,147.3335)"><path
             d="M 0,0 C 0,24.041 14.208,42.554 26.097,53.838 L 1.503,44.233 C -15.523,37.226 -38.32,15.179 -38.32,-17.536 v -109.027 c 0,-7.329 5.942,-13.27 13.27,-13.27 H 0 Z"
             style="fill:#1ca8ff;fill-opacity:1;fill-rule:nonzero;stroke:none"
             id="path333" /></g><g
           id="g335"
           transform="translate(324.9277,470.5864)"><path
             d="m 0,0 c -6.938,-0.534 -13.305,3.828 -14.64,10.658 -2.25,11.502 -7.944,22.916 -30.189,22.916 h -51.563 l -16.756,-7.66 -19.25,-28.5 v -80.25 l 6.21,-8.083 8.369,-4.671 h 53.715 c 19.592,0 36.607,10.991 45.241,27.139 0.67,1.252 2.569,0.763 2.569,-0.656 0,-14.566 11.918,-26.483 26.483,-26.483 7.636,0 13.882,6.247 13.882,13.882 v 58.735 C 24.071,-9.136 11.999,0.922 0,0"
             style="fill:#7b6c79;fill-opacity:1;fill-rule:nonzero;stroke:none"
             id="path337" /></g><g
           id="g339"
           transform="translate(194.5542,396.5903)"><path
             d="M 0,0 V 56.285 C 0,84.608 22.961,107.57 51.286,107.57 H 8.37 c -28.324,0 -51.286,-22.962 -51.286,-51.285 V 0 c 0,-11.926 9.668,-21.594 21.594,-21.594 H 21.594 C 9.668,-21.594 0,-11.926 0,0"
             style="fill:#665e68;fill-opacity:1;fill-rule:nonzero;stroke:none"
             id="path341" /></g><g
           id="g343"
           transform="translate(308.6567,401.8193)"><path
             d="m 0,0 c 0,1.419 -1.9,1.908 -2.569,0.656 -8.634,-16.148 -25.649,-27.139 -45.241,-27.139 h -78.516 v -52.079 c 0,-37.952 29.738,-72.616 74.72,-72.616 40.041,0 72.617,32.576 72.617,72.616 v 52.655 C 9.048,-23.368 0,-12.691 0,0 Z"
             style="fill:none;stroke:#000000;stroke-width:15;stroke-linecap:round;stroke-linejoin:round;stroke-miterlimit:10;stroke-dasharray:none;stroke-opacity:1"
             id="path345" /></g><g
           id="g347"
           transform="translate(129.2798,137.6118)"><path
             d="M 0,0 V -128.071"
             style="fill:none;stroke:#000000;stroke-width:15;stroke-linecap:round;stroke-linejoin:round;stroke-miterlimit:10;stroke-dasharray:none;stroke-opacity:1"
             id="path349" /></g><g
           id="g351"
           transform="translate(156.4204,383.4243)"><path
             d="m 0,0 c -9.039,-4.304 -15.301,-13.496 -15.301,-24.174 0,-14.795 11.994,-26.79 26.79,-26.79 H 25.91 V -8.088 H 16.835 C 10.023,-8.088 3.958,-4.927 0,0 Z"
             style="fill:none;stroke:#000000;stroke-width:15;stroke-linecap:round;stroke-linejoin:round;stroke-miterlimit:10;stroke-dasharray:none;stroke-opacity:1"
             id="path353" /></g><g
           id="g355"
           transform="translate(348.5346,385.6421)"><path
             d="m 0,0 c -1.59,-5.914 -6.997,-10.306 -13.395,-10.306 -1.875,0 -3.702,0.212 -5.469,0.589 l -0.003,-0.013 v -43.452 h 14.422 c 14.796,0 26.79,11.995 26.79,26.79 C 22.345,-13.113 12.675,-2.122 0,0 Z"
             style="fill:none;stroke:#000000;stroke-width:15;stroke-linecap:round;stroke-linejoin:round;stroke-miterlimit:10;stroke-dasharray:none;stroke-opacity:1"
             id="path357" /></g><g
           id="g359"
           transform="translate(382.7202,137.6118)"><path
             d="M 0,0 V -128.071"
             style="fill:none;stroke:#000000;stroke-width:15;stroke-linecap:round;stroke-linejoin:round;stroke-miterlimit:10;stroke-dasharray:none;stroke-opacity:1"
             id="path361" /></g><g
           id="g363"
           transform="translate(237.5127,122.9004)"><path
             d="m 0,0 c 5.565,-5.565 12.875,-8.348 20.185,-8.348 7.31,0 14.62,2.783 20.185,8.348 l 84.793,84.792 c -27.35,10.592 -58.505,22.658 -61.254,23.722 -2.822,1.091 -4.698,3.807 -4.705,6.848 l -0.02,24.202 C 47.776,132.099 34.16,127.741 19.538,127.741 c -16.123,0 -30.273,4.47 -41.811,11.932 v -24.266 c 0,-3.033 -1.459,-4.821 -3.138,-5.96 L -85.844,85.844 Z"
             style="fill:none;stroke:#000000;stroke-width:15;stroke-linecap:round;stroke-linejoin:round;stroke-miterlimit:10;stroke-dasharray:none;stroke-opacity:1"
             id="path365" /></g><g
           id="g367"
           transform="translate(251.8735,153.395)"><path
             d="m 0,0 c 3.217,-3.216 8.432,-3.216 11.648,0 l 66.82,66.819 C 63.205,72.73 51.206,77.377 49.548,78.02 c -2.821,1.09 -4.697,3.806 -4.705,6.848 l -0.02,24.202 C 33.415,101.604 19.799,97.246 5.177,97.246 c -16.123,0 -30.273,4.471 -41.811,11.933 V 84.913 c 0,-3.034 -1.459,-4.821 -3.137,-5.961 L -67.947,67.948 Z"
             style="fill:none;stroke:#000000;stroke-width:15;stroke-linecap:round;stroke-linejoin:round;stroke-miterlimit:10;stroke-dasharray:none;stroke-opacity:1"
             id="path369" /></g><g
           id="g371"
           transform="translate(194.5405,221.3428)"><path
             d="M 0,0 V -132.457"
             style="fill:none;stroke:#000000;stroke-width:15;stroke-linecap:round;stroke-linejoin:round;stroke-miterlimit:10;stroke-dasharray:none;stroke-opacity:1"
             id="path373" /></g><g
           id="g375"
           transform="translate(319.8037,221.3428)"><path
             d="M 0,0 V -114.79"
             style="fill:none;stroke:#000000;stroke-width:15;stroke-linecap:round;stroke-linejoin:round;stroke-miterlimit:10;stroke-dasharray:none;stroke-opacity:1"
             id="path377" /></g><g
           id="g379"
           transform="translate(194.5405,114.5522)"><path
             d="m 0,0 v 0 c -14.117,0 -25.667,-11.55 -25.667,-25.667 0,-14.116 11.55,-25.666 25.667,-25.666 14.117,0 25.667,11.55 25.667,25.666 C 25.667,-11.55 14.117,0 0,0 Z"
             style="fill:none;stroke:#000000;stroke-width:15;stroke-linecap:round;stroke-linejoin:round;stroke-miterlimit:10;stroke-dasharray:none;stroke-opacity:1"
             id="path381" /></g><g
           id="g383"
           transform="translate(345.6372,46.6304)"><path
             d="m 0,0 v 47.178 c 0,7.038 -5.706,12.744 -12.745,12.744 h -26.177 c -7.039,0 -12.745,-5.706 -12.745,-12.744 V 0"
             style="fill:none;stroke:#000000;stroke-width:15;stroke-linecap:round;stroke-linejoin:round;stroke-miterlimit:10;stroke-dasharray:none;stroke-opacity:1"
             id="path385" /></g><g
           id="g387"
           transform="translate(287.2924,44.6748)"><path
             d="M 0,0 H 13.5"
             style="fill:none;stroke:#000000;stroke-width:15;stroke-linecap:round;stroke-linejoin:round;stroke-miterlimit:10;stroke-dasharray:none;stroke-opacity:1"
             id="path389" /></g><g
           id="g391"
           transform="translate(338.8872,44.6748)"><path
             d="M 0,0 H 13.5"
             style="fill:none;stroke:#000000;stroke-width:15;stroke-linecap:round;stroke-linejoin:round;stroke-miterlimit:10;stroke-dasharray:none;stroke-opacity:1"
             id="path393" /></g><g
           id="g395"
           transform="translate(273.5,7.5)"><path
             d="m 0,0 h 157.368 c 7.328,0 13.27,5.942 13.27,13.271 v 109.026 c 0,32.716 -22.797,54.763 -39.824,61.77 -4.954,1.918 -98.047,37.972 -102.893,39.848 -2.821,1.09 -4.697,3.806 -4.705,6.848 l -0.02,24.202 C 11.789,247.5 -1.828,243.141 -16.45,243.141 c -16.123,0 -30.272,4.471 -41.811,11.933 v -24.266 c 0,-3.034 -1.458,-4.821 -3.137,-5.961 l -104.416,-40.78 c -17.027,-7.007 -39.824,-29.054 -39.824,-61.77 V 13.271 C -205.638,5.942 -199.696,0 -192.368,0 H -35"
             style="fill:none;stroke:#000000;stroke-width:15;stroke-linecap:round;stroke-linejoin:round;stroke-miterlimit:10;stroke-dasharray:none;stroke-opacity:1"
             id="path397" /></g><g
           id="g399"
           transform="translate(349.0219,439.75)"><path
             d="m 0,0 v 8.203 c 0,13.838 -12.073,23.895 -24.071,22.973 -6.939,-0.534 -13.305,3.828 -14.64,10.658 -2.25,11.502 -7.944,22.916 -30.189,22.916 h -77.175 c -28.324,0 -51.285,-22.961 -51.285,-51.285 V -42.82 c 0,-11.926 9.668,-21.594 21.593,-21.594 h 87.592 c 19.592,0 36.607,10.992 45.241,27.14 0.669,1.251 2.569,0.763 2.569,-0.657 0,-14.566 11.917,-26.483 26.483,-26.483 7.635,0 13.882,6.247 13.882,13.882 L 0,-35"
             style="fill:none;stroke:#000000;stroke-width:15;stroke-linecap:round;stroke-linejoin:round;stroke-miterlimit:10;stroke-dasharray:none;stroke-opacity:1"
             id="path401" /></g></g></g></g></svg>
